<svg width="20" height="13" viewBox="0 0 20 13" fill="none" xmlns="http://www.w3.org/2000/svg">
<path fill-rule="evenodd" clip-rule="evenodd" d="M0.186427 5.69851C1.35913 4.18465 5.03429 0 9.82809 0C14.6219 0 18.2971 4.18465 19.4698 5.69851C19.7183 6.01939 19.7183 6.45435 19.4698 6.77524C18.2971 8.2891 14.6219 12.4737 9.82809 12.4737C5.03428 12.4737 1.35913 8.2891 0.186427 6.77524C-0.0621426 6.45435 -0.0621422 6.01939 0.186427 5.69851ZM10 8.98687C11.5188 8.98687 12.75 7.75566 12.75 6.23687C12.75 4.71809 11.5188 3.48687 10 3.48687C8.48122 3.48687 7.25 4.71809 7.25 6.23687C7.25 7.75566 8.48122 8.98687 10 8.98687Z" fill="#B6B3BC"/>
</svg>
